<svg version="1.1" viewBox="0.0 0.0 256.0 256.0" fill="none" stroke="none" stroke-linecap="square" stroke-miterlimit="10" xmlns:xlink="http://www.w3.org/1999/xlink" xmlns="http://www.w3.org/2000/svg"><clipPath id="p.0"><path d="m0 0l256.0 0l0 256.0l-256.0 0l0 -256.0z" clip-rule="nonzero"/></clipPath><g clip-path="url(#p.0)"><path fill="#000000" fill-opacity="0.0" d="m0 0l256.0 0l0 256.0l-256.0 0z" fill-rule="evenodd"/><path fill="#2a2623" d="m127.99998 256.0l-119.41728 -59.70868l0 -136.58264l119.41728 -59.70867l119.41729 59.70867l0 136.58264z" fill-rule="evenodd"/><path stroke="#000000" stroke-width="1.0" stroke-linejoin="round" stroke-linecap="butt" d="m127.99998 256.0l-119.41728 -59.70868l0 -136.58264l119.41728 -59.70867l119.41729 59.70867l0 136.58264z" fill-rule="evenodd"/><path fill="#207620" d="m127.99998 242.01575l-106.3629 -53.181473l0 -121.66855l106.3629 -53.181473l106.36291 53.181473l0 121.66855z" fill-rule="evenodd"/><path stroke="#000000" stroke-width="1.0" stroke-linejoin="round" stroke-linecap="butt" d="m127.99998 242.01575l-106.3629 -53.181473l0 -121.66855l106.3629 -53.181473l106.36291 53.181473l0 121.66855z" fill-rule="evenodd"/><path fill="#ffffff" d="m43.35867 71.64709l24.379063 0l0 -24.379063l22.949593 0l0 24.379063l24.379066 0l0 22.949593l-24.379066 0l0 24.379066l-22.949593 0l0 -24.379066l-24.379063 0z" fill-rule="evenodd"/><path stroke="#cccccc" stroke-width="1.0" stroke-linejoin="round" stroke-linecap="butt" d="m43.35867 71.64709l24.379063 0l0 -24.379063l22.949593 0l0 24.379063l24.379066 0l0 22.949593l-24.379066 0l0 24.379066l-22.949593 0l0 -24.379066l-24.379063 0z" fill-rule="evenodd"/><path fill="#ffffff" d="m136.37363 71.64709l71.70772 0l0 22.949593l-71.70772 0z" fill-rule="evenodd"/><path stroke="#cccccc" stroke-width="1.0" stroke-linejoin="round" stroke-linecap="butt" d="m136.37363 71.64709l71.70772 0l0 22.949593l-71.70772 0z" fill-rule="evenodd"/><path fill="#ffffff" d="m79.21253 133.96858l0 0c6.3373566 0 11.4747925 5.137451 11.4747925 11.474808c0 6.3373413 -5.137436 11.4747925 -11.4747925 11.4747925c-6.3373566 0 -11.4748 -5.137451 -11.4748 -11.4747925c0 -6.3373566 5.1374435 -11.474808 11.4748 -11.474808zm0 74.566666c-6.3373566 0 -11.4748 -5.137436 -11.4748 -11.4747925c0 -6.3373566 5.1374435 -11.4747925 11.4748 -11.4747925c6.3373566 0 11.4747925 5.137436 11.4747925 11.4747925c0 6.3373566 -5.137436 11.4747925 -11.4747925 11.4747925zm-35.853863 -48.758133l71.70772 0l0 22.9496l-71.70772 0z" fill-rule="evenodd"/><path stroke="#cccccc" stroke-width="1.0" stroke-linejoin="round" stroke-linecap="butt" d="m79.21253 133.96858l0 0c6.3373566 0 11.4747925 5.137451 11.4747925 11.474808c0 6.3373413 -5.137436 11.4747925 -11.4747925 11.4747925c-6.3373566 0 -11.4748 -5.137451 -11.4748 -11.4747925c0 -6.3373566 5.1374435 -11.474808 11.4748 -11.474808zm0 74.566666c-6.3373566 0 -11.4748 -5.137436 -11.4748 -11.4747925c0 -6.3373566 5.1374435 -11.4747925 11.4748 -11.4747925c6.3373566 0 11.4747925 5.137436 11.4747925 11.4747925c0 6.3373566 -5.137436 11.4747925 -11.4747925 11.4747925zm-35.853863 -48.758133l71.70772 0l0 22.9496l-71.70772 0z" fill-rule="evenodd"/><path fill="#ffffff" d="m136.80582 154.01346l16.227814 -16.227814l17.238464 17.238464l17.23848 -17.238464l16.227814 16.227814l-17.23848 17.238464l17.23848 17.238464l-16.227814 16.227814l-17.23848 -17.238464l-17.238464 17.238464l-16.227814 -16.227814l17.238464 -17.238464z" fill-rule="evenodd"/><path stroke="#cccccc" stroke-width="1.0" stroke-linejoin="round" stroke-linecap="butt" d="m136.80582 154.01346l16.227814 -16.227814l17.238464 17.238464l17.23848 -17.238464l16.227814 16.227814l-17.23848 17.238464l17.23848 17.238464l-16.227814 16.227814l-17.23848 -17.238464l-17.238464 17.238464l-16.227814 -16.227814l17.238464 -17.238464z" fill-rule="evenodd"/></g></svg>