<svg version="1.1" viewBox="0.0 0.0 256.0 256.0" fill="none" stroke="none" stroke-linecap="square" stroke-miterlimit="10" xmlns:xlink="http://www.w3.org/1999/xlink" xmlns="http://www.w3.org/2000/svg"><clipPath id="p.0"><path d="m0 0l256.0 0l0 256.0l-256.0 0l0 -256.0z" clip-rule="nonzero"/></clipPath><g clip-path="url(#p.0)"><path fill="#000000" fill-opacity="0.0" d="m0 0l256.0 0l0 256.0l-256.0 0z" fill-rule="evenodd"/><defs><radialGradient id="p.1" gradientUnits="userSpaceOnUse" gradientTransform="matrix(13.454342661391202 0.0 0.0 13.454342661391202 0.0 0.0)" spreadMethod="pad" cx="9.51482738720875" cy="9.51482738720875" fx="9.51482738720875" fy="9.51482738720875" r="13.45434284210205"><stop offset="0.0" stop-color="#4d4d4d"/><stop offset="1.0" stop-color="#000000"/></radialGradient></defs><path fill="url(#p.1)" d="m0.015748031 128.01575l128.0 -128.0l128.0 128.0l-128.0 128.0z" fill-rule="evenodd"/><path stroke="#000000" stroke-width="1.0" stroke-linejoin="round" stroke-linecap="butt" d="m0.015748031 128.01575l128.0 -128.0l128.0 128.0l-128.0 128.0z" fill-rule="evenodd"/><defs><radialGradient id="p.2" gradientUnits="userSpaceOnUse" gradientTransform="matrix(12.40716345715222 0.0 0.0 12.40716345715222 0.0 0.0)" spreadMethod="pad" cx="10.316935742689353" cy="10.316935742689353" fx="10.316935742689353" fy="10.316935742689353" r="12.407163619995117"><stop offset="0.0" stop-color="#39494f"/><stop offset="0.99999994" stop-color="#283237"/><stop offset="1.0" stop-color="#737373"/></radialGradient></defs><path fill="url(#p.2)" d="m19.153515 128.0039l108.85039 -108.85039l108.8504 108.85039l-108.8504 108.8504z" fill-rule="evenodd"/><path stroke="#000000" stroke-width="1.0" stroke-linejoin="round" stroke-linecap="butt" d="m19.153515 128.0039l108.85039 -108.85039l108.8504 108.85039l-108.8504 108.8504z" fill-rule="evenodd"/><path fill="#222226" d="m77.72587 118.01556l40.28974 0l0 -40.28974l19.96872 0l0 40.28974l40.28975 0l0 19.968727l-40.28975 0l0 40.289734l-19.96872 0l0 -40.289734l-40.28974 0z" fill-rule="evenodd"/><path stroke="#000000" stroke-width="1.0" stroke-linejoin="round" stroke-linecap="butt" d="m77.72587 118.01556l40.28974 0l0 -40.28974l19.96872 0l0 40.28974l40.28975 0l0 19.968727l-40.28975 0l0 40.289734l-19.96872 0l0 -40.289734l-40.28974 0z" fill-rule="evenodd"/></g></svg>