<svg version="1.1" viewBox="0.0 0.0 256.0 256.0" fill="none" stroke="none" stroke-linecap="square" stroke-miterlimit="10" xmlns:xlink="http://www.w3.org/1999/xlink" xmlns="http://www.w3.org/2000/svg"><clipPath id="p.0"><path d="m0 0l256.0 0l0 256.0l-256.0 0l0 -256.0z" clip-rule="nonzero"/></clipPath><g clip-path="url(#p.0)"><path fill="#000000" fill-opacity="0.0" d="m0 0l256.0 0l0 256.0l-256.0 0z" fill-rule="evenodd"/><defs><radialGradient id="p.1" gradientUnits="userSpaceOnUse" gradientTransform="matrix(13.45428627098739 0.0 0.0 13.45428627098739 0.0 0.0)" spreadMethod="pad" cx="9.51339789879199" cy="9.513492639740093" fx="9.51339789879199" fy="9.513492639740093" r="13.454286575317383"><stop offset="0.0" stop-color="#4d4d4d"/><stop offset="1.0" stop-color="#000000"/></radialGradient></defs><path fill="url(#p.1)" d="m-0.0029425197 -0.0016678479l255.99785 0l0 255.99783l-255.99785 0z" fill-rule="evenodd"/><path stroke="#000000" stroke-width="1.0" stroke-linejoin="round" stroke-linecap="butt" d="m-0.0029425197 -0.0016678479l255.99785 0l0 255.99783l-255.99785 0z" fill-rule="evenodd"/><path fill="#313335" d="m16.497715 16.49723l222.99654 0l0 222.99652l-222.99654 0z" fill-rule="evenodd"/><path stroke="#000000" stroke-width="1.0" stroke-linejoin="round" stroke-linecap="butt" d="m16.497715 16.49723l222.99654 0l0 222.99652l-222.99654 0z" fill-rule="evenodd"/><path fill="#222226" d="m71.95535 116.865906l44.91104 0l0 -44.91104l22.25917 0l0 44.91104l44.91104 0l0 22.259155l-44.91104 0l0 44.91104l-22.25917 0l0 -44.91104l-44.91104 0z" fill-rule="evenodd"/><path stroke="#000000" stroke-width="1.0" stroke-linejoin="round" stroke-linecap="butt" d="m71.95535 116.865906l44.91104 0l0 -44.91104l22.25917 0l0 44.91104l44.91104 0l0 22.259155l-44.91104 0l0 44.91104l-22.25917 0l0 -44.91104l-44.91104 0z" fill-rule="evenodd"/></g></svg>