<svg version="1.1" viewBox="0.0 0.0 256.0 256.0" fill="none" stroke="none" stroke-linecap="square" stroke-miterlimit="10" xmlns:xlink="http://www.w3.org/1999/xlink" xmlns="http://www.w3.org/2000/svg"><clipPath id="p.0"><path d="m0 0l256.0 0l0 256.0l-256.0 0l0 -256.0z" clip-rule="nonzero"/></clipPath><g clip-path="url(#p.0)"><path fill="#000000" fill-opacity="0.0" d="m0 0l256.0 0l0 256.0l-256.0 0z" fill-rule="evenodd"/><path fill="#ffffff" d="m14.830019 14.8297615l0 60.003696l-14.279362 14.279358l0 -88.562416z" fill-rule="evenodd"/><path stroke="#ffffff" stroke-width="1.0" stroke-linejoin="round" stroke-linecap="butt" d="m14.830019 14.8297615l0 60.003696l-14.279362 14.279358l0 -88.562416z" fill-rule="evenodd"/><path fill="#ffffff" d="m74.83372 14.8297615l-60.0037 0l-14.279362 -14.279362l88.562416 0z" fill-rule="evenodd"/><path stroke="#ffffff" stroke-width="1.0" stroke-linejoin="round" stroke-linecap="butt" d="m74.83372 14.8297615l-60.0037 0l-14.279362 -14.279362l88.562416 0z" fill-rule="evenodd"/><path fill="#ffffff" d="m14.830019 14.8297615l0 60.003696l-14.279362 14.279358l0 -88.562416z" fill-rule="evenodd"/><path stroke="#ffffff" stroke-width="1.0" stroke-linejoin="round" stroke-linecap="butt" d="m14.830019 14.8297615l0 60.003696l-14.279362 14.279358l0 -88.562416z" fill-rule="evenodd"/><path fill="#ffffff" d="m74.83372 14.8297615l-60.0037 0l-14.279362 -14.279362l88.562416 0z" fill-rule="evenodd"/><path stroke="#ffffff" stroke-width="1.0" stroke-linejoin="round" stroke-linecap="butt" d="m74.83372 14.8297615l-60.0037 0l-14.279362 -14.279362l88.562416 0z" fill-rule="evenodd"/><path fill="#ffffff" d="m14.830019 241.17024l60.0037 0l14.279358 14.279358l-88.562416 0z" fill-rule="evenodd"/><path stroke="#ffffff" stroke-width="1.0" stroke-linejoin="round" stroke-linecap="butt" d="m14.830019 241.17024l60.0037 0l14.279358 14.279358l-88.562416 0z" fill-rule="evenodd"/><path fill="#ffffff" d="m14.830019 181.16655l0 60.003693l-14.279362 14.279358l0 -88.56242z" fill-rule="evenodd"/><path stroke="#ffffff" stroke-width="1.0" stroke-linejoin="round" stroke-linecap="butt" d="m14.830019 181.16655l0 60.003693l-14.279362 14.279358l0 -88.56242z" fill-rule="evenodd"/><path fill="#ffffff" d="m241.1705 241.17024l0 -60.003693l14.279358 -14.279373l0 88.56242z" fill-rule="evenodd"/><path stroke="#ffffff" stroke-width="1.0" stroke-linejoin="round" stroke-linecap="butt" d="m241.1705 241.17024l0 -60.003693l14.279358 -14.279373l0 88.56242z" fill-rule="evenodd"/><path fill="#ffffff" d="m181.1668 241.17024l60.003708 0l14.279358 14.279358l-88.56242 0z" fill-rule="evenodd"/><path stroke="#ffffff" stroke-width="1.0" stroke-linejoin="round" stroke-linecap="butt" d="m181.1668 241.17024l60.003708 0l14.279358 14.279358l-88.56242 0z" fill-rule="evenodd"/><path fill="#ffffff" d="m241.1705 14.8297615l-60.003708 0l-14.279358 -14.279362l88.56242 0z" fill-rule="evenodd"/><path stroke="#ffffff" stroke-width="1.0" stroke-linejoin="round" stroke-linecap="butt" d="m241.1705 14.8297615l-60.003708 0l-14.279358 -14.279362l88.56242 0z" fill-rule="evenodd"/><path fill="#ffffff" d="m241.1705 74.83346l0 -60.003696l14.279358 -14.279362l0 88.562416z" fill-rule="evenodd"/><path stroke="#ffffff" stroke-width="1.0" stroke-linejoin="round" stroke-linecap="butt" d="m241.1705 74.83346l0 -60.003696l14.279358 -14.279362l0 88.562416z" fill-rule="evenodd"/></g></svg>