<svg version="1.1" viewBox="0.0 0.0 256.0 256.0" fill="none" stroke="none" stroke-linecap="square" stroke-miterlimit="10" xmlns:xlink="http://www.w3.org/1999/xlink" xmlns="http://www.w3.org/2000/svg"><clipPath id="p.0"><path d="m0 0l256.0 0l0 256.0l-256.0 0l0 -256.0z" clip-rule="nonzero"/></clipPath><g clip-path="url(#p.0)"><path fill="#000000" fill-opacity="0.0" d="m0 0l256.0 0l0 256.0l-256.0 0z" fill-rule="evenodd"/><path fill="#ffffff" d="m128.0 14.341028l-30.131416 30.131414l-14.341026 0l44.472443 -44.472443z" fill-rule="evenodd"/><path stroke="#ffffff" stroke-width="1.0" stroke-linejoin="round" stroke-linecap="butt" d="m128.0 14.341028l-30.131416 30.131414l-14.341026 0l44.472443 -44.472443z" fill-rule="evenodd"/><path fill="#ffffff" d="m158.13141 44.472443l-30.131409 -30.131414l0 -14.341028l44.472443 44.472443z" fill-rule="evenodd"/><path stroke="#ffffff" stroke-width="1.0" stroke-linejoin="round" stroke-linecap="butt" d="m158.13141 44.472443l-30.131409 -30.131414l0 -14.341028l44.472443 44.472443z" fill-rule="evenodd"/><path fill="#ffffff" d="m128.0 14.341028l-30.131416 30.131414l-14.341026 0l44.472443 -44.472443z" fill-rule="evenodd"/><path stroke="#ffffff" stroke-width="1.0" stroke-linejoin="round" stroke-linecap="butt" d="m128.0 14.341028l-30.131416 30.131414l-14.341026 0l44.472443 -44.472443z" fill-rule="evenodd"/><path fill="#ffffff" d="m158.13141 44.472443l-30.131409 -30.131414l0 -14.341028l44.472443 44.472443z" fill-rule="evenodd"/><path stroke="#ffffff" stroke-width="1.0" stroke-linejoin="round" stroke-linecap="butt" d="m158.13141 44.472443l-30.131409 -30.131414l0 -14.341028l44.472443 44.472443z" fill-rule="evenodd"/><path fill="#ffffff" d="m128.0 241.65897l30.131409 -30.131409l14.341034 0l-44.472443 44.472443z" fill-rule="evenodd"/><path stroke="#ffffff" stroke-width="1.0" stroke-linejoin="round" stroke-linecap="butt" d="m128.0 241.65897l30.131409 -30.131409l14.341034 0l-44.472443 44.472443z" fill-rule="evenodd"/><path fill="#ffffff" d="m97.86858 211.52756l30.131416 30.131409l0 14.341034l-44.472443 -44.472443z" fill-rule="evenodd"/><path stroke="#ffffff" stroke-width="1.0" stroke-linejoin="round" stroke-linecap="butt" d="m97.86858 211.52756l30.131416 30.131409l0 14.341034l-44.472443 -44.472443z" fill-rule="evenodd"/><path fill="#ffffff" d="m14.341028 128.0l30.131414 30.131409l0 14.341034l-44.472443 -44.472443z" fill-rule="evenodd"/><path stroke="#ffffff" stroke-width="1.0" stroke-linejoin="round" stroke-linecap="butt" d="m14.341028 128.0l30.131414 30.131409l0 14.341034l-44.472443 -44.472443z" fill-rule="evenodd"/><path fill="#ffffff" d="m44.472443 97.86858l-30.131414 30.131416l-14.341028 0l44.472443 -44.472443z" fill-rule="evenodd"/><path stroke="#ffffff" stroke-width="1.0" stroke-linejoin="round" stroke-linecap="butt" d="m44.472443 97.86858l-30.131414 30.131416l-14.341028 0l44.472443 -44.472443z" fill-rule="evenodd"/><path fill="#ffffff" d="m241.65897 128.0l-30.131409 -30.131416l0 -14.341026l44.472443 44.472443z" fill-rule="evenodd"/><path stroke="#ffffff" stroke-width="1.0" stroke-linejoin="round" stroke-linecap="butt" d="m241.65897 128.0l-30.131409 -30.131416l0 -14.341026l44.472443 44.472443z" fill-rule="evenodd"/><path fill="#ffffff" d="m211.52756 158.13141l30.131409 -30.131409l14.341034 0l-44.472443 44.472443z" fill-rule="evenodd"/><path stroke="#ffffff" stroke-width="1.0" stroke-linejoin="round" stroke-linecap="butt" d="m211.52756 158.13141l30.131409 -30.131409l14.341034 0l-44.472443 44.472443z" fill-rule="evenodd"/></g></svg>